<svg xmlns="http://www.w3.org/2000/svg" viewBox="0 0 607.25 131.53"><defs><style>.cls-1{fill:#009fe3}</style></defs><title>Asset 1</title><g id="Layer_2" data-name="Layer 2"><g id="Layer_1-2" data-name="Layer 1"><path class="cls-1" transform="rotate(-31.55 83.782 42.226)" d="M53.23 33.1h61.07v18.26H53.23z"/><path class="cls-1" d="M97.18 64.33A39.73 39.73 0 1 1 72 20.82l9.2-15.95a58 58 0 1 0 34.4 59.46z"/><path d="M170.21 62.37a27.42 27.42 0 0 0 3.58 11.76 23.71 23.71 0 0 0 8.5 8.67 25.28 25.28 0 0 0 26.16-.8 19.73 19.73 0 0 0 7.55-9.61l13.36 4.29A32.94 32.94 0 0 1 217 92.82q-8.91 6.27-22.42 6.28a38.37 38.37 0 0 1-20.43-5.49 37.89 37.89 0 0 1-14-15 44.79 44.79 0 0 1-5-21.15 43 43 0 0 1 5.17-20.91 39.28 39.28 0 0 1 14.15-15 37.61 37.61 0 0 1 20-5.48 37.14 37.14 0 0 1 19.48 5 34 34 0 0 1 12.95 14.07 45.6 45.6 0 0 1 4.61 21v6.2zm40.46-26.95q-6.12-6.29-16.13-6.28t-16.38 6a25.64 25.64 0 0 0-7.79 15h47.06a23 23 0 0 0-6.76-14.72zM256.28 124.7a34.77 34.77 0 0 1-12.17-18.45l14.63-3.5q4 15.42 21 15.43 11.59 0 17.73-5.89t6.12-16.53V84a26.68 26.68 0 0 1-10 9.14A31.29 31.29 0 0 1 278 96.87a35.69 35.69 0 0 1-19.88-5.48 36.27 36.27 0 0 1-13-14.71 44.72 44.72 0 0 1-4.54-20 44.6 44.6 0 0 1 4.62-20.11 37.72 37.72 0 0 1 13.11-15 34.45 34.45 0 0 1 19.48-5.64q9.23 0 15.66 3.58a28.81 28.81 0 0 1 10.1 9l2.54-10.33h13v77.26a38.42 38.42 0 0 1-4.37 18.36 31.5 31.5 0 0 1-13.2 13q-8.82 4.77-21.86 4.77-14.57-.04-23.38-6.87zM297 75.64q6.6-7.23 6.6-19 0-11.93-6.6-19.31a23.45 23.45 0 0 0-34.19 0q-6.6 7.38-6.59 19.31 0 11.77 6.59 19t17.26 7.24A21.88 21.88 0 0 0 297 75.64zM336.27 18.17h12.88l2.38 9.83a24.8 24.8 0 0 1 8.19-8.58A22 22 0 0 1 372 15.94a26.76 26.76 0 0 1 8.27 1.19 21.8 21.8 0 0 1 5.88 2.79l-6 13.67a13.86 13.86 0 0 0-4-2 19.48 19.48 0 0 0-6.12-.87 16.25 16.25 0 0 0-13 6.12q-5.17 6.12-5.17 16.46v43.57h-15.59zM401.62 62.37a27.41 27.41 0 0 0 3.57 11.76 23.74 23.74 0 0 0 8.51 8.67 25.28 25.28 0 0 0 26.16-.8 19.73 19.73 0 0 0 7.55-9.61l13.35 4.29a32.82 32.82 0 0 1-12.4 16.14q-8.91 6.27-22.42 6.28a38.39 38.39 0 0 1-20.43-5.49 37.87 37.87 0 0 1-14-15 44.79 44.79 0 0 1-5-21.15 42.86 42.86 0 0 1 5.17-20.91 39.21 39.21 0 0 1 14.15-15 37.6 37.6 0 0 1 19.95-5.48 37.11 37.11 0 0 1 19.48 5 34 34 0 0 1 13 14.07 45.73 45.73 0 0 1 4.61 21v6.2zm40.46-26.95q-6.12-6.29-16.14-6.28t-16.37 6a25.71 25.71 0 0 0-7.8 15h47.07a23.05 23.05 0 0 0-6.76-14.72zM482.63 93q-8.28-6.12-11.45-17.73l14-4.3a24.87 24.87 0 0 0 6 10.82q4 4.13 12.48 4.13 7.32 0 11.85-2.94a9.12 9.12 0 0 0 4.53-8 8.36 8.36 0 0 0-3.34-6.6q-3.33-2.77-13.2-4.53-14-2.55-21.78-7.71T473.88 40a20.94 20.94 0 0 1 8.35-17.25q8.34-6.6 21.38-6.6 11.92 0 19.64 6t10.1 16.78l-13.84 4a19.94 19.94 0 0 0-5.16-9.93c-2.5-2.49-6.07-3.73-10.74-3.73-5.08 0-8.85 1-11.28 2.94a8.81 8.81 0 0 0-3.66 7.07 7.42 7.42 0 0 0 4.33 6.95q4.29 2.31 13.2 3.9 14 2.7 21.3 8.18t7.32 16.46a21.07 21.07 0 0 1-4 12.56A26 26 0 0 1 519.67 96a40.11 40.11 0 0 1-16.06 3.1q-12.72 0-20.98-6.1zM555.1 93q-8.28-6.12-11.45-17.73l14-4.3a24.87 24.87 0 0 0 6 10.82q4.06 4.13 12.48 4.13 7.32 0 11.85-2.94a9.12 9.12 0 0 0 4.53-8 8.36 8.36 0 0 0-3.34-6.6q-3.33-2.77-13.19-4.53-14-2.55-21.79-7.71T546.35 40a20.94 20.94 0 0 1 8.35-17.3q8.34-6.6 21.38-6.6 11.94 0 19.64 6t10.1 16.78l-13.83 4a20 20 0 0 0-5.17-9.88q-3.74-3.74-10.74-3.73c-5.08 0-8.85 1-11.28 2.94a8.81 8.81 0 0 0-3.66 7.07 7.42 7.42 0 0 0 4.29 6.92q4.29 2.31 13.2 3.9 14 2.7 21.3 8.18t7.32 16.46a21.07 21.07 0 0 1-4 12.56 26 26 0 0 1-11.11 8.7 40.11 40.11 0 0 1-16.06 3.1q-12.72 0-20.98-6.1z"/></g></g></svg>